<?xml version="1.0" encoding="utf-8"?>
<!-- Generator: Adobe Illustrator 23.0.5, SVG Export Plug-In . SVG Version: 6.00 Build 0)  -->
<svg version="1.1" id="Camada_1" xmlns="http://www.w3.org/2000/svg" xmlns:xlink="http://www.w3.org/1999/xlink" x="0px" y="0px"
	 viewBox="0 0 420 150.8" style="enable-background:new 0 0 420 150.8;" xml:space="preserve">
<style type="text/css">
	.st0{fill:#FFFFFF;}
	.st1{fill-rule:evenodd;clip-rule:evenodd;fill:#906017;}
	.st2{fill:#906017;}
	.st3{fill-rule:evenodd;clip-rule:evenodd;fill:#1D1D1B;}
	.st4{fill:#1D1D1B;}
</style>
<path class="st0" d="M-40-174.5"/>
<path class="st0" d="M-40-174.5"/>
<g>
	<path class="st1" d="M354.8,0c27.8,0,52.1,15,65.2,37.4h-4C403.3,17,380.6,3.3,354.7,3.3c-39.8,0-72.1,32.3-72.1,72.1
		s32.3,72.1,72.1,72.1c25.9,0,48.5-13.6,61.3-34.1h4c-13.1,22.4-37.4,37.4-65.2,37.4c-41.7,0-75.5-33.8-75.5-75.5
		C279.3,33.8,313.1,0,354.8,0L354.8,0z M354.8,17.9c31.8,0,57.6,25.8,57.6,57.6s-25.8,57.6-57.6,57.6c-1.7,0-3.3-0.1-4.9-0.2v-5.3
		c1.6,0.2,3.3,0.2,4.9,0.2c28.9,0,52.4-23.5,52.4-52.4S383.7,23,354.8,23c-27.5,0-50,21.2-52.2,48.1h-5.3
		C299.5,41.4,324.4,17.9,354.8,17.9L354.8,17.9z"/>
	<path class="st2" d="M153.7,112l-1.7-8.5c0-0.1-0.1-0.2-0.2-0.2h-0.9c-0.1,0-0.2,0.1-0.3,0.1l-5,8.5c-0.1,0.1,0,0.2,0.1,0.2h1.5
		c0.1,0,0.2-0.1,0.3-0.1c0.3-0.5,0.6-1.1,0.9-1.6h3.1c0.1,0.5,0.2,1,0.3,1.6c0,0.1,0.1,0.2,0.2,0.2h1.6
		C153.6,112.2,153.7,112.2,153.7,112C153.7,112.1,153.7,112.1,153.7,112L153.7,112L153.7,112z M149.1,109.1c0.5-1,1.1-2.1,1.7-3.3
		c0.1,1.2,0.3,2.2,0.4,3.3H149.1L149.1,109.1z M169,112l-2-3.6c1.4-0.3,2.3-1.2,2.6-2.5c0.3-1.5-0.8-2.4-2.8-2.4h-2.4
		c-0.1,0-0.2,0.1-0.2,0.2l-1.6,8.4c0,0.1,0,0.2,0.1,0.2h1.4c0.1,0,0.2-0.1,0.2-0.2l0.6-3.4h0.3l1.7,3.4c0,0.1,0.1,0.1,0.2,0.1h1.7
		c0.1,0,0.2,0,0.2-0.1V112L169,112L169,112z M165.6,104.7h0.8c1,0,1.6,0.5,1.4,1.3c-0.2,0.8-0.9,1.3-1.9,1.3h-0.8L165.6,104.7
		L165.6,104.7z M185.3,112l-1.7-8.5c0-0.1-0.1-0.2-0.2-0.2h-0.9c-0.1,0-0.2,0.1-0.3,0.1l-5,8.5c-0.1,0.1,0,0.2,0.1,0.2h1.5
		c0.1,0,0.2-0.1,0.3-0.1c0.3-0.5,0.6-1.1,0.9-1.6h3.1c0.1,0.5,0.2,1,0.3,1.6c0,0.1,0.1,0.2,0.2,0.2h1.6
		C185.2,112.2,185.3,112.2,185.3,112C185.3,112.1,185.3,112.1,185.3,112L185.3,112L185.3,112z M180.7,109.1c0.5-1,1.1-2.1,1.7-3.3
		c0.1,1.2,0.3,2.2,0.4,3.3H180.7L180.7,109.1z M198.2,103.4h-2.3c-0.1,0-0.2,0.1-0.2,0.2l-1.6,8.4c0,0.1,0,0.2,0.1,0.2h1.5
		c0.1,0,0.2-0.1,0.2-0.2l0.5-2.8h0.7c2.3,0,3.9-1.1,4.2-2.9C201.7,104.5,200.5,103.4,198.2,103.4L198.2,103.4L198.2,103.4z
		 M197.4,107.8h-0.7l0.6-3h0.7c1.2,0,1.7,0.6,1.5,1.5C199.3,107.2,198.6,107.8,197.4,107.8L197.4,107.8z M209.6,112.2h1.5
		c0.1,0,0.2-0.1,0.2-0.2l1.6-8.4c0-0.1,0-0.2-0.1-0.2h-1.5c-0.1,0-0.2,0.1-0.2,0.2l-1.6,8.4C209.4,112.2,209.5,112.2,209.6,112.2
		L209.6,112.2L209.6,112.2z M227.5,112l-2-3.6c1.4-0.3,2.3-1.2,2.6-2.5c0.3-1.5-0.8-2.4-2.8-2.4h-2.4c-0.1,0-0.2,0.1-0.2,0.2
		l-1.6,8.4c0,0.1,0,0.2,0.1,0.2h1.4c0.1,0,0.2-0.1,0.2-0.2l0.6-3.4h0.3l1.7,3.4c0,0.1,0.1,0.1,0.2,0.1h1.7c0.1,0,0.2,0,0.2-0.1
		C227.5,112.1,227.5,112,227.5,112L227.5,112L227.5,112z M224.1,104.7h0.8c1,0,1.6,0.5,1.4,1.3s-0.9,1.3-1.9,1.3h-0.8L224.1,104.7
		L224.1,104.7z M243.8,112l-1.7-8.5c0-0.1-0.1-0.2-0.2-0.2H241c-0.1,0-0.2,0.1-0.3,0.1l-5,8.5c-0.1,0.1,0,0.2,0.1,0.2h1.5
		c0.1,0,0.2-0.1,0.3-0.1c0.3-0.5,0.6-1.1,0.9-1.6h3.1c0.1,0.5,0.2,1,0.3,1.6c0,0.1,0.1,0.2,0.2,0.2h1.6
		C243.7,112.2,243.7,112.2,243.8,112C243.8,112.1,243.8,112.1,243.8,112L243.8,112L243.8,112z M239.1,109.1c0.5-1,1.1-2.1,1.7-3.3
		c0.1,1.2,0.3,2.2,0.4,3.3H239.1L239.1,109.1z M256.3,112.3c0.9,0,1.7-0.2,2.3-0.4c0.1,0,0.2-0.1,0.2-0.2l0.2-1.1
		c0-0.2,0-0.3-0.1-0.3c0,0-0.1,0-0.2,0c-0.6,0.2-1.2,0.4-1.9,0.4c-1.7,0-2.9-1.1-2.5-2.9c0.3-1.8,1.9-2.9,3.6-2.9
		c0.6,0,1.2,0.1,1.6,0.4c0.1,0,0.1,0.1,0.2,0.1s0.2-0.1,0.2-0.2l0.2-1.2c0-0.1,0-0.2-0.1-0.2c-0.4-0.2-1.2-0.4-2-0.4
		c-2.5,0-5,1.7-5.6,4.5C252,110.6,253.9,112.3,256.3,112.3L256.3,112.3L256.3,112.3z M275.4,112l-1.7-8.5c0-0.1-0.1-0.2-0.2-0.2
		h-0.9c-0.1,0-0.2,0.1-0.3,0.1l-5,8.5c-0.1,0.1,0,0.2,0.1,0.2h1.5c0.1,0,0.2-0.1,0.3-0.1c0.3-0.5,0.6-1.1,0.9-1.6h3.1
		c0.1,0.5,0.2,1,0.3,1.6c0,0.1,0.1,0.2,0.2,0.2h1.6C275.4,112.2,275.4,112.2,275.4,112C275.4,112.1,275.4,112.1,275.4,112L275.4,112
		L275.4,112z M270.8,109.1c0.5-1,1.1-2.1,1.7-3.3c0.1,1.2,0.3,2.2,0.4,3.3H270.8L270.8,109.1z"/>
	<path class="st3" d="M237.9,55.9l0.1-0.5h-26.9l-6.7,40.2h5.6c2.3-0.2,4.3-1.3,4.9-3.9l2.2-13.1h13.4l2.3-7h-14.5l1.3-7.7l-3.8-1.3
		h20L237.9,55.9L237.9,55.9z M227.3,95.6h6.7c2.2-0.2,3.6-1.6,4.3-3.9l5.7-18.1c0.8-2.8,1.6-5.3,2.2-7.7h0.2c0.1,2.3,0.2,4.8,0.4,7
		l0.8,11.3c0.4,2.9,1.9,3.7,4.4,3.7h6.1l6-14.9c0.9-2.3,1.8-4.8,2.7-7.1h0.2c-0.1,2.3-0.3,5.1-0.3,7.7l-0.3,16.3
		c0.1,4,3,5.6,6.6,5.7h3.2l0.1-40.2h-9.5c-1.7,0.1-2.8,1-3.6,2.5L254.4,80h-0.2l-1.6-24.6h-9.7c-1.9,0.2-2.8,1.2-3.2,2.5L227.3,95.6
		L227.3,95.6z"/>
	<path class="st3" d="M100.7,95.2l1.3-7.5H83.8L105.7,63c0.6-3.8,2.4-7.5-3.2-7.7H78l-1.2,7.3h20.4L93,63.9L72,87.6l-1.3,7.6
		L100.7,95.2L100.7,95.2z M195.6,95.2L191.4,58c-0.4-2-1.6-2.7-3.9-2.8h-12l-17.9,39.9h7.8c1.4,0,2.5-0.3,3.4-1.9l3.7-8.2h10.6
		l0.8-4.4l1.3,14.4h10.4V95.2z M183.8,77.9h-8.6l7.1-16.7L183.8,77.9L183.8,77.9z M69.2,95.2L65,58c-0.4-2-1.6-2.7-3.9-2.8h-12
		L31.2,95.1H39c1.4,0,2.5-0.3,3.4-1.9l3.7-8.2h10.6l0.8-4.4L58.8,95h10.4V95.2z M57.4,77.9h-8.6l7.1-16.7L57.4,77.9L57.4,77.9z
		 M170.7,62.6l1.2-7.3h-33.2l-1.2,7.2h15.7l-4.4,1.6l-5.3,31.1h6.7c2.1-0.4,3.4-1.4,4-3.3l5-29.3L170.7,62.6L170.7,62.6z"/>
	<path class="st3" d="M22.8,62.2c11.6,1.7,11.9-1.1,13.2-6.3c-1.8-0.5-7.8-1.5-13.7-1.5c-8.7,0-18.3,2.4-21,18.4l-0.8,4.7
		c-2.6,15.2,5,18.6,14.5,18.6c6,0,11.7-0.8,14.6-1.3l3.5-20.9l-6.9,2.4c-1.7,0.6-3,1.9-3.6,4.2l-1.3,7.7c-1.3,0.1-3,0.1-4.6,0.1
		c-5.5,0-7.7-2.2-6.3-10.8l0.8-4.7C12.8,63.5,16.6,62.2,22.8,62.2L22.8,62.2z"/>
	<polygon class="st4" points="130,95.2 131.2,88 114.1,88 115.7,78.3 131.8,78.3 132.9,71.3 116.9,71.3 118.2,63.5 114.4,62.3 
		135.6,62.3 136.8,55.3 109.6,55.3 102.8,95.2 	"/>
	<path class="st3" d="M384.2,79.3l-0.2-0.1c1-0.6,1.7-1.5,2-2.6c-1.6-0.3-2.6-1.7-2.3-3.4c0.3-1.9,2.1-3.5,4.1-3.5
		c1.9,0,3.2,1.5,2.9,3.4c-0.3,1.6-1.1,2.9-2.3,4C387.2,78.3,385.8,79,384.2,79.3L384.2,79.3z"/>
	<path class="st4" d="M342.3,98.6c10.3,0,20.9-7.9,23.8-23.1c2.9-15.2-4.7-23-15-23s-20.9,7.8-23.8,23
		C324.4,90.7,332,98.6,342.3,98.6L342.3,98.6L342.3,98.6z M344.4,87.6c-4.2,0-5.9-4.3-4.4-12.2c1.5-7.7,4.8-12.1,9-12.1
		c4.4,0,5.9,4.3,4.5,12.1C352,83.3,348.8,87.6,344.4,87.6L344.4,87.6L344.4,87.6z"/>
	<path class="st4" d="M399.4,56.3h-1.1c-0.3,0-0.6,0.1-0.8,0.2l-4.1,1.7c-0.3,0.1-0.4,0.3-0.5,0.6l-0.6,3.2c0,0.2,0,0.3,0.1,0.3
		s0.1,0,0.2,0l1.2-0.4l-2.2,11.7c-0.1,0.3,0.1,0.4,0.3,0.4h4.1c0.3,0,0.4-0.2,0.5-0.4l3.2-16.7C399.8,56.4,399.7,56.3,399.4,56.3
		L399.4,56.3L399.4,56.3z"/>
	<path class="st4" d="M329.2,53h-2.9c-0.7,0-1.5,0.2-2.1,0.4l-10.4,4.4c-0.7,0.3-1.1,0.8-1.2,1.5l-1.6,8.2c-0.1,0.5,0.1,0.7,0.4,0.7
		c0.1,0,0.3,0,0.5-0.1L315,67l-5.7,30c-0.1,0.7,0.2,1,0.8,1h10.5c0.7,0,1.1-0.4,1.2-1l8.1-42.9C330.1,53.3,329.8,53,329.2,53
		L329.2,53L329.2,53z"/>
	<path class="st4" d="M385.3,53h-2.9c-0.7,0-1.5,0.2-2.1,0.4l-10.4,4.4c-0.7,0.3-1.1,0.8-1.2,1.5l-1.5,8.2c-0.1,0.5,0.1,0.7,0.4,0.7
		c0.1,0,0.3,0,0.5-0.1l3.1-1.1l-5.7,30c-0.1,0.7,0.2,1,0.8,1h10.5c0.7,0,1.1-0.4,1.2-1l8.1-42.9C386.2,53.3,385.9,53,385.3,53
		L385.3,53L385.3,53z"/>
</g>
</svg>
